<?xml version="1.0" standalone="no"?>
<!DOCTYPE svg PUBLIC "-//W3C//DTD SVG 20010904//EN"
 "http://www.w3.org/TR/2001/REC-SVG-20010904/DTD/svg10.dtd">
<svg version="1.0" xmlns="http://www.w3.org/2000/svg"
 width="512.000000pt" height="512.000000pt" viewBox="0 0 512.000000 512.000000"
 preserveAspectRatio="xMidYMid meet">
<metadata>
Created by potrace 1.14, written by Peter Selinger 2001-2017
</metadata>
<g transform="translate(0.000000,512.000000) scale(0.100000,-0.100000)"
fill="#000000" stroke="none">
<path d="M450 2565 l0 -1776 693 3 c614 4 703 6 786 22 613 117 1070 520 1248
1101 31 103 62 251 71 340 9 95 9 543 -1 630 -35 315 -182 667 -371 890 -117
138 -238 244 -361 317 -175 104 -355 174 -555 216 l-125 26 -692 4 -693 3 0
-1776z"/>
<path d="M3369 4336 c-2 -2 -33 -6 -69 -9 -85 -8 -207 -32 -297 -58 l-72 -22
80 -74 c350 -330 562 -790 615 -1334 5 -55 5 -455 0 -529 -5 -69 -16 -167 -22
-200 -2 -14 -7 -38 -10 -55 -21 -120 -88 -349 -131 -445 -69 -157 -187 -356
-275 -465 -18 -22 -81 -89 -140 -150 -59 -60 -105 -112 -100 -116 9 -8 136
-43 212 -58 30 -5 71 -13 90 -17 19 -4 344 -9 723 -11 l687 -4 0 1776 0 1775
-644 0 c-354 -1 -645 -2 -647 -4z"/>
</g>
</svg>
